<svg xmlns="http://www.w3.org/2000/svg" viewBox="0 0 400 300">
  <!-- 
    Claude-inspired Editorial Illustration Style
    - Delicate, continuous-like outlines (#2D2A26)
    - Deliberately offset, painterly color blocks
    - Abstract, airy composition
    
    Palette:
    Archive Box (Outer): #D4CEC8
    Archive Box (Inner): #F5F2ED
    Yellow/Label/Star: #F5C563
    Green/Leaf: #8BA888
    Blue/Dot: #7EB8C9
    Dark Brown/Lines: #2D2A26
  -->

  <!-- Background Abstract Watercolor-like Splashes -->
  <!-- Ground Shadow under the box -->
  <ellipse cx="190" cy="240" rx="65" ry="12" fill="#D4CEC8" opacity="0.3" transform="rotate(-5 190 240)" />
  <!-- A quiet warm air glow -->
  <path d="M 60 40 C 90 20, 150 40, 130 90 C 110 140, 30 110, 60 40 Z" fill="#F5C563" opacity="0.05" />
  <!-- Airy blue mist left -->
  <circle cx="100" cy="180" r="50" fill="#7EB8C9" opacity="0.1" />

  <!-- Offset Color Fills -->
  <!-- Box Outer Front Body (Offset down/right slightly) -->
  <path d="M 125 150 L 235 150 L 225 220 L 115 220 Z" fill="#D4CEC8" opacity="0.6" />
  <!-- Box Outer Left Side -->
  <path d="M 115 120 L 125 150 L 115 220 L 105 190 Z" fill="#D4CEC8" opacity="0.4" />
  
  <!-- Box Inner (Empty and light) -->
  <path d="M 115 120 L 225 120 L 235 150 L 125 150 Z" fill="#F5F2ED" opacity="0.9" />
  <!-- Box Inner Back Wall Depth Shadow -->
  <path d="M 115 120 L 225 120 L 227 130 L 117 130 Z" fill="#D4CEC8" opacity="0.3" />
  
  <!-- Opened Lid (leaning back right) -->
  <path d="M 225 120 L 235 150 L 285 100 L 275 70 Z" fill="#D4CEC8" opacity="0.5" />

  <!-- Label Fill on Front -->
  <rect x="155" y="170" width="30" height="15" rx="3" fill="#F5C563" opacity="0.9" transform="rotate(-2 170 175)" />

  <!-- Falling Leaf Fill -->
  <path d="M 265 175 C 255 160, 240 180, 260 195 C 275 210, 290 190, 265 175 Z" fill="#8BA888" opacity="0.9" />

  <!-- Line Art (The delicate hand-drawn structure) -->
  <g stroke="#2D2A26" stroke-width="2" stroke-linecap="round" stroke-linejoin="round" fill="none">
    
    <!-- 45-degree isometric-ish Open Box -->
    <!-- Top inner opening edge -->
    <path d="M 110 115 L 220 115 L 230 145 L 120 145 Z" stroke-width="1.5" />
    <!-- Outer Front Wall -->
    <path d="M 120 145 L 230 145 L 220 215 C 215 220, 115 220, 110 215 L 120 145" />
    <!-- Outer Left Wall -->
    <path d="M 110 115 L 120 145 L 110 215 L 100 185 L 110 115" />
    <!-- Inside corner vertical crease -->
    <path d="M 110 115 L 115 130" opacity="0.5" /> <!-- Inner corner hint -->

    <!-- Opened Lid -->
    <!-- The lid is attached to the back-right edge -->
    <path d="M 220 115 L 230 145 L 270 95 L 260 65 C 255 60, 225 110, 220 115" />
    <path d="M 265 72 L 273 82" stroke-width="1.5" /> <!-- Lid thickness hint -->

    <!-- Cute front label -->
    <rect x="150" y="165" width="28" height="14" rx="2" transform="rotate(-2 164 172)" stroke-width="1.5" />
    <!-- Mini horizontal lines on label -->
    <line x1="155" y1="170" x2="168" y2="169" stroke-width="1" />
    <line x1="156" y1="174" x2="174" y2="173" stroke-width="1" />

    <!-- A falling leaf (Drifting down gently) -->
    <!-- Leaf outline -->
    <path d="M 260 170 C 250 155, 235 175, 255 190 C 270 205, 285 185, 260 170 Z" />
    <!-- Leaf vein -->
    <path d="M 260 170 C 258 175, 255 180, 255 190" stroke-width="1.5" />
    <!-- Motion trails -->
    <path d="M 270 150 C 270 155, 265 160, 265 165" stroke="#D4CEC8" stroke-width="1.5" stroke-dasharray="2 3" />
    <path d="M 280 155 C 280 160, 275 165, 275 170" stroke="#D4CEC8" stroke-width="1.5" stroke-dasharray="2 3" />
  </g>

  <!-- Delicate Sparkles and Abstract Marks -->
  <!-- Left top tiny dot -->
  <circle cx="80" cy="80" r="3" fill="#7EB8C9" opacity="0.15" />
  
  <!-- Right top subtle star -->
  <path d="M 320 60 Q 325 60, 325 55 Q 325 60, 330 60 Q 325 60, 325 65 Q 325 60, 320 60 Z" fill="#F5C563" opacity="0.2" />

  <!-- Extra ambient dust/floaters -->
  <circle cx="280" cy="220" r="2" fill="#D4CEC8" opacity="0.6" />
  <circle cx="120" cy="240" r="1.5" fill="#E8725C" opacity="0.4" />
  <circle cx="150" cy="110" r="2" fill="#8BA888" opacity="0.3" />

</svg>
