<svg xmlns="http://www.w3.org/2000/svg" viewBox="0 0 400 300">
  <!-- 
    Claude-inspired Editorial Illustration Style
    - Delicate, continuous-like outlines (using #2D2A26 for elegant contrast instead of pure black)
    - Deliberately offset, painterly color blocks (using fill)
    - Abstract, airy composition
    
    Palette:
    Red/Body: #E8725C
    Yellow/Light/Pencil: #F5C563
    Green/Dot: #8BA888
    Blue/Dot: #7EB8C9
    Purple/Accent: #B8A9C9
    Skin/Head: #F5DCC8
    Grey/Lines/Shadow: #D4CEC8
    Dark Brown/Lines: #2D2A26
    White/Notebook: #FAF8F5
  -->

  <!-- Background Abstract Watercolor-like Splashes -->
  <!-- Soft grey ambient ground/shadow -->
  <path d="M 80 230 C 130 200, 270 200, 320 230 C 350 250, 280 270, 200 270 C 120 270, 50 250, 80 230 Z" fill="#D4CEC8" opacity="0.3" />
  <!-- Warm yellow inspiration glow -->
  <circle cx="250" cy="110" r="50" fill="#F5C563" opacity="0.15" />
  <!-- Calm mist blue block -->
  <path d="M 90 140 C 140 100, 160 170, 120 200 C 80 230, 40 180, 90 140 Z" fill="#7EB8C9" opacity="0.2" />

  <!-- The Figure's Offset Color Fills -->
  <!-- Skin fill -->
  <path d="M 185 85 C 205 75, 230 85, 225 105 C 220 120, 200 125, 185 110 Z" fill="#F5DCC8" />
  <!-- Torso/Dress fill -->
  <path d="M 175 115 C 190 115, 230 110, 240 145 C 250 180, 260 215, 215 220 C 170 225, 130 210, 140 160 Z" fill="#E8725C" opacity="0.9" />
  <!-- Notebook fill -->
  <path d="M 140 170 C 180 160, 210 160, 250 170 L 260 210 C 220 215, 180 215, 130 210 Z" fill="#FAF8F5" />
  
  <!-- Line Art (The delicate hand-drawn structure) -->
  <g stroke="#2D2A26" stroke-width="2" stroke-linecap="round" stroke-linejoin="round" fill="none">
    
    <!-- Head and graceful neck -->
    <path d="M 190 115 C 185 105, 188 90, 200 85 C 215 80, 225 95, 220 108 C 215 120, 205 115, 195 120" />
    
    <!-- Sweeping Torso / Sitting posture -->
    <path d="M 195 120 C 195 130, 175 140, 160 160 C 150 175, 140 210, 155 225 C 170 240, 220 235, 245 220 C 265 205, 265 170, 255 145 C 245 120, 210 115, 195 120" />
    
    <!-- Arm resting elegantly -->
    <path d="M 210 120 C 220 140, 235 155, 225 180" />
    <path d="M 175 130 C 160 150, 165 170, 175 190" />

    <!-- Open Journal/Notebook -->
    <path d="M 135 180 C 170 170, 200 170, 235 180 C 245 190, 255 210, 245 220 C 210 225, 180 225, 145 220 C 135 210, 125 190, 135 180 Z" />
    <path d="M 190 171 C 195 185, 195 205, 195 222" /> <!-- Center fold -->
    
    <!-- Notebook Pages & Lines (Delicate detail) -->
    <!-- Left page text lines -->
    <path d="M 145 190 C 160 185, 175 185, 185 188" stroke-width="1.5" opacity="0.6" />
    <path d="M 142 198 C 158 193, 175 193, 187 196" stroke-width="1.5" opacity="0.6" />
    <path d="M 140 206 C 155 202, 175 202, 189 205" stroke-width="1.5" opacity="0.6" />
    <!-- Right page text lines -->
    <path d="M 200 188 C 215 185, 225 185, 235 190" stroke-width="1.5" opacity="0.6" />
    <path d="M 202 196 C 215 193, 228 193, 238 198" stroke-width="1.5" opacity="0.6" />

    <!-- The Idea Lightbulb (Floating gracefully) -->
    <path d="M 245 80 C 235 75, 235 60, 245 50 C 255 40, 275 45, 275 60 C 275 70, 265 75, 260 85 L 255 85 C 250 85, 245 85, 245 80 Z" stroke-dasharray="4 4" />
    <path d="M 252 87 L 263 87 M 254 92 L 261 92" />
    <!-- Lightbulb Filament (Very subtle) -->
    <path d="M 255 75 Q 260 65 255 55" stroke-width="1" />
    <path d="M 260 75 Q 255 65 260 55" stroke-width="1" />

    <!-- A dropped pencil -->
    <path d="M 270 230 L 300 240 M 268 233 L 298 243 M 300 240 L 298 243 M 270 230 L 260 235 L 268 233" />
  </g>

  <!-- Offset color for Pencil -->
  <path d="M 270 228 L 300 238 L 298 245 L 268 235 Z" fill="#F5C563" opacity="0.8" />
  
  <!-- Offset color for Lightbulb glow -->
  <circle cx="260" cy="65" r="15" fill="#F5C563" opacity="0.4" />

  <!-- Delicate Sparkles and Abstract Marks -->
  <!-- Sparkle 1 (Top Left) -->
  <path d="M 100 80 Q 110 80 110 70 Q 110 80 120 80 Q 110 80 110 90 Q 110 80 100 80 Z" fill="#F5C563" />
  
  <!-- Sparkle 2 (Near Lightbulb) -->
  <path d="M 280 40 Q 285 40 285 35 Q 285 40 290 40 Q 285 40 285 45 Q 285 40 280 40 Z" fill="#E8725C" opacity="0.8" />

  <!-- A tiny lavender accent shape -->
  <path d="M 130 50 C 140 40, 150 45, 145 55 Z" fill="#B8A9C9" opacity="0.7" />

  <!-- Minimalist dots floating -->
  <circle cx="310" cy="180" r="4" fill="#8BA888" />
  <circle cx="320" cy="190" r="3" fill="#D4CEC8" />
  <circle cx="110" cy="220" r="2" fill="#E8725C" />

</svg>