<svg xmlns="http://www.w3.org/2000/svg" viewBox="0 0 400 300">
  <!-- 
    Claude-inspired Editorial Illustration Style
    - Delicate, continuous-like outlines (#2D2A26)
    - Deliberately offset, painterly color blocks
    - Abstract, airy composition
    
    Palette:
    Red/Flag: #E8725C
    Yellow/Goal/Flower: #F5C563
    Green/Grass/Stem: #8BA888
    Blue/Cloud: #7EB8C9
    Purple/Accent: #B8A9C9
    Grey/Path/Nodes: #D4CEC8
    Dark Brown/Lines: #2D2A26
  -->

  <!-- Background Abstract Watercolor-like Splashes -->
  <!-- Warm ground glow near start -->
  <circle cx="120" cy="220" r="45" fill="#F5C563" opacity="0.1" />
  <!-- Airy blue mist top right near goal -->
  <path d="M 230 60 C 290 40, 360 80, 340 130 C 310 180, 250 140, 230 60 Z" fill="#7EB8C9" opacity="0.15" />
  <!-- Distant mountain/hill hint -->
  <path d="M 40 200 C 100 170, 180 180, 250 220 C 320 260, 380 230, 420 200 L 420 300 L 40 300 Z" fill="#D4CEC8" opacity="0.15" />

  <!-- Offset Color Fills -->
  <!-- Cloud fill (Top Right) -->
  <path d="M 270 90 C 270 70, 310 70, 315 85 C 335 85, 340 110, 320 115 C 320 125, 290 120, 280 120 C 265 125, 250 110, 270 90 Z" fill="#7EB8C9" opacity="0.4" />
  
  <!-- Flag fill (Red, offset) -->
  <path d="M 125 155 Q 155 145, 160 170 Q 135 180, 125 155 Z" fill="#E8725C" opacity="0.9" />

  <!-- Goal node glow (Yellow, behind the goal) -->
  <circle cx="300" cy="140" r="18" fill="#F5C563" opacity="0.3" />

  <!-- Line Art (The delicate hand-drawn structure) -->
  <g stroke="#2D2A26" stroke-width="2" stroke-linecap="round" stroke-linejoin="round" fill="none">
    
    <!-- Winding Path (Dashed) -->
    <path d="M 120 250 C 180 230, 120 150, 200 130 C 250 110, 250 180, 300 140" stroke="#D4CEC8" stroke-width="2.5" stroke-dasharray="6 6" />
    
    <!-- Nodes on the Path -->
    <!-- Node 1 (Start) -->
    <circle cx="123" cy="242" r="5" stroke="#D4CEC8" fill="#FAF8F5" />
    <!-- Node 2 (Middle) -->
    <circle cx="218" cy="143" r="4" stroke="#D4CEC8" fill="#FAF8F5" />
    <!-- Node 3 (Goal - Solid Yellow) -->
    <circle cx="300" cy="140" r="8" fill="#F5C563" stroke="none" />
    
    <!-- Goal Rays -->
    <g stroke="#F5C563" stroke-width="2" stroke-linecap="round">
      <line x1="300" y1="125" x2="300" y2="115" />
      <line x1="312" y1="132" x2="320" y2="125" />
      <line x1="288" y1="132" x2="280" y2="125" />
    </g>

    <!-- Start Flag -->
    <!-- Flagpole -->
    <line x1="120" y1="230" x2="120" y2="150" stroke="#D4CEC8" stroke-width="2.5" />
    <!-- Flag fabric (Triangular/Wavy) -->
    <path d="M 120 155 Q 150 145, 165 165 Q 135 175, 120 185" />
    <!-- Little star on flag -->
    <path d="M 132 165 L 134 168 L 138 168 L 135 171 L 136 175 L 132 173 L 129 175 L 130 171 L 127 168 L 130 168 Z" fill="#FAF8F5" stroke="none" />

    <!-- Delicate Cloud (Top Right) -->
    <path d="M 275 95 C 275 80, 305 75, 315 88 C 330 85, 340 100, 325 110 C 330 125, 295 125, 285 115 C 270 120, 260 105, 275 95 Z" stroke-width="1.5" />

    <!-- Grass Tufts -->
    <!-- Grass 1 (Near start) -->
    <path d="M 160 235 Q 165 225, 170 235" stroke="#8BA888" stroke-width="1.5" />
    <path d="M 165 235 Q 170 220, 175 235" stroke="#8BA888" stroke-width="1.5" />
    <!-- Grass 2 (Along the path) -->
    <path d="M 230 180 Q 235 170, 240 180" stroke="#8BA888" stroke-width="1.5" />
    <path d="M 235 180 Q 240 165, 245 180" stroke="#8BA888" stroke-width="1.5" />
    <path d="M 240 180 Q 245 172, 250 180" stroke="#8BA888" stroke-width="1.5" />

    <!-- Little Flower near Flag -->
    <!-- Stem -->
    <path d="M 95 240 Q 90 230, 95 220" stroke="#8BA888" stroke-width="1.5" />
    <!-- Leaves -->
    <path d="M 95 230 Q 88 228, 92 235" stroke="#8BA888" stroke-width="1" />
  </g>

  <!-- Solid fills drawn over lines for aesthetic -->
  <!-- Flower Head -->
  <circle cx="95" cy="220" r="4" fill="#F5C563" />
  <circle cx="91" cy="216" r="3" fill="#F5C563" opacity="0.8" />
  <circle cx="99" cy="216" r="3" fill="#F5C563" opacity="0.8" />
  <circle cx="91" cy="224" r="3" fill="#F5C563" opacity="0.8" />
  <circle cx="99" cy="224" r="3" fill="#F5C563" opacity="0.8" />
  <circle cx="95" cy="220" r="1.5" fill="#E8725C" /> <!-- Flower center -->

  <!-- Delicate Sparkles and Abstract Marks -->
  <!-- Tiny sparkles near goal -->
  <path d="M 330 150 Q 335 150, 335 145 Q 335 150, 340 150 Q 335 150, 335 155 Q 335 150, 330 150 Z" fill="#F5C563" />
  <path d="M 260 110 Q 263 110, 263 107 Q 263 110, 266 110 Q 263 110, 263 113 Q 263 110, 260 110 Z" fill="#B8A9C9" opacity="0.8" />
  
  <!-- Floating ambient dots -->
  <circle cx="180" cy="180" r="2" fill="#E8725C" opacity="0.5" />
  <circle cx="100" cy="140" r="3" fill="#7EB8C9" opacity="0.6" />
  <circle cx="280" cy="200" r="2.5" fill="#8BA888" opacity="0.7" />

</svg>