<svg xmlns="http://www.w3.org/2000/svg" viewBox="0 0 400 300">
  <!-- 
    Claude-inspired Editorial Illustration Style
    - Delicate, continuous-like outlines (#2D2A26)
    - Deliberately offset, painterly color blocks
    - Abstract, airy composition
    
    Palette:
    Red/Pin: #E8725C
    Yellow/Note: #F5C563
    Green/Dot: #8BA888
    Blue/Dot: #7EB8C9
    Purple/Star: #B8A9C9
    Skin/Hand: #F5DCC8
    Grey/Lines/Shadow: #D4CEC8
    Dark Brown/Lines: #2D2A26
    White-ish/Board: #F5F2ED
  -->

  <!-- Background Abstract Watercolor-like Splashes -->
  <!-- Warm ground shadow -->
  <path d="M 60 250 C 120 230, 280 230, 340 250 C 370 270, 250 280, 200 280 C 150 280, 20 270, 60 250 Z" fill="#D4CEC8" opacity="0.2" />
  <!-- Airy blue mist top right -->
  <path d="M 280 40 C 330 30, 360 80, 320 120 C 280 160, 240 100, 280 40 Z" fill="#7EB8C9" opacity="0.15" />

  <!-- Offset Color Fills -->
  <!-- Board body fill -->
  <path d="M 75 55 C 200 45, 260 50, 275 65 L 295 210 C 280 235, 120 240, 75 220 Z" fill="#F5F2ED" />
  <!-- Empty dotted note area highlight/shadow block -->
  <rect x="125" y="115" width="80" height="80" rx="4" fill="#D4CEC8" opacity="0.2" transform="rotate(-3 165 155)" />
  
  <!-- Hand fill -->
  <path d="M 400 220 C 360 200, 320 220, 310 200 C 300 180, 260 185, 240 205 C 220 225, 240 250, 260 240 C 280 230, 290 260, 310 270 C 340 285, 380 270, 400 250 Z" fill="#F5DCC8" />
  <!-- Yellow Note fill -->
  <path d="M 205 165 L 265 145 L 295 205 L 235 225 Z" fill="#F5C563" opacity="0.9" />
  <!-- Red Pin fill -->
  <circle cx="165" cy="85" r="8" fill="#E8725C" opacity="0.9" />

  <!-- Line Art (The delicate hand-drawn structure) -->
  <g stroke="#2D2A26" stroke-width="2" stroke-linecap="round" stroke-linejoin="round" fill="none">
    
    <!-- Mood Board (Round rectangle) -->
    <rect x="70" y="50" width="220" height="180" rx="16" />
    
    <!-- Pin holes on top left -->
    <circle cx="100" cy="80" r="1.5" stroke="#D4CEC8" stroke-width="2" />
    <circle cx="120" cy="75" r="1.5" stroke="#D4CEC8" stroke-width="2" />

    <!-- Dashed rectangle for missing note (Target area) -->
    <rect x="120" y="110" width="90" height="90" rx="4" stroke="#D4CEC8" stroke-width="2" stroke-dasharray="6 6" transform="rotate(-3 165 155)" />
    
    <!-- Red Pin (Center top of dashed area) -->
    <!-- Pin Head -->
    <circle cx="162" cy="82" r="7" />
    <!-- Pin Needle -->
    <path d="M 166 89 L 169 98" stroke-width="1.5" />
    <!-- Pin Highlights (offset slightly) -->
    <path d="M 158 80 Q 162 76 166 80" stroke="#FAF8F5" stroke-width="1.5" />

    <!-- Hand and Fingers -->
    <!-- Arm coming in -->
    <path d="M 400 225 C 370 210, 340 215, 320 210" />
    <path d="M 400 270 C 360 260, 340 275, 320 260" />
    <!-- Index Finger (holding top of note) -->
    <path d="M 320 210 C 300 200, 265 180, 245 190 C 235 195, 230 205, 245 210" />
    <!-- Thumb (holding bottom of note) -->
    <path d="M 320 260 C 305 245, 280 240, 260 250 C 250 255, 245 245, 255 235 C 265 225, 285 220, 305 230" />
    <path d="M 315 220 Q 305 222 300 230" stroke-width="1" /> <!-- Hand crease -->

    <!-- Yellow Note (Held in hand) -->
    <path d="M 210 160 L 270 140 L 290 200 L 230 220 Z" />
    
    <!-- Lines on Note -->
    <path d="M 225 175 L 260 163" stroke-width="1.5" />
    <path d="M 230 190 L 255 181" stroke-width="1.5" />

  </g>

  <!-- Delicate Sparkles and Abstract Marks -->
  <!-- Lavender Star (Top Right of board) -->
  <path d="M 330 80 Q 340 80 340 70 Q 340 80 350 80 Q 340 80 340 90 Q 340 80 330 80 Z" fill="#B8A9C9" opacity="0.8" />
  
  <!-- Tiny accents -->
  <circle cx="80" cy="240" r="3" fill="#8BA888" opacity="0.8" />
  <circle cx="90" cy="250" r="4" fill="#7EB8C9" opacity="0.6" />
  <circle cx="370" cy="180" r="2" fill="#E8725C" opacity="0.6" />
  <circle cx="165" cy="155" r="2" fill="#F5C563" opacity="0.4" /> <!-- Hint dot inside dashed box -->

</svg>