<svg xmlns="http://www.w3.org/2000/svg" viewBox="0 0 400 300">
  <!-- 
    Claude-inspired Editorial Illustration Style
    - Delicate, continuous-like outlines (#2D2A26)
    - Deliberately offset, painterly color blocks
    - Abstract, airy composition
    
    Palette:
    Red/Accent: #E8725C
    Yellow/Sun: #F5C563
    Green/Plant: #8BA888
    Blue/Water: #7EB8C9
    Purple/Accent: #B8A9C9
    Grey/Shadows: #D4CEC8
    Pot Brown: #D4A574
    Dark Brown/Lines: #2D2A26
  -->

  <!-- Background Abstract Watercolor-like Splashes -->
  <!-- Ground Shadow -->
  <ellipse cx="200" cy="250" rx="45" ry="8" fill="#D4CEC8" opacity="0.3" />
  
  <!-- Subtle warm glow from the sun left -->
  <path d="M 60 40 C 90 20, 150 40, 130 90 C 110 140, 30 110, 60 40 Z" fill="#F5C563" opacity="0.15" />
  <!-- Gentle blue/green nurture mist right -->
  <path d="M 230 150 C 270 120, 320 160, 290 210 C 260 260, 200 200, 230 150 Z" fill="#7EB8C9" opacity="0.1" />
  <circle cx="270" cy="180" r="30" fill="#8BA888" opacity="0.08" />

  <!-- Offset Color Fills -->
  <!-- Pot Body Fill (Offset slightly right/down) -->
  <path d="M 175 242 L 225 242 L 235 192 L 165 192 Z" fill="#D4A574" opacity="0.9" />
  <!-- Pot Rim Fill -->
  <rect x="155" y="180" width="90" height="12" rx="4" fill="#D4CEC8" opacity="0.8" />
  <!-- Plant Leaves Fill -->
  <path d="M 183 158 C 170 145, 160 160, 185 168 Z" fill="#8BA888" />
  <path d="M 217 148 C 235 140, 240 160, 215 165 Z" fill="#8BA888" />
  
  <!-- Water Drop Fill -->
  <path d="M 240 115 C 240 125, 250 125, 250 115 C 250 100, 245 95, 245 95 C 245 95, 240 100, 240 115 Z" fill="#7EB8C9" />

  <!-- Sun Fill (Half circle) -->
  <path d="M 70 80 A 30 30 0 0 0 130 80 Z" fill="#F5C563" opacity="0.9" />

  <!-- Line Art (The delicate hand-drawn structure) -->
  <g stroke="#2D2A26" stroke-width="2" stroke-linecap="round" stroke-linejoin="round" fill="none">
    
    <!-- Sun (Top Left) -->
    <path d="M 68 80 A 30 30 0 0 0 132 80" />
    <line x1="100" y1="80" x2="100" y2="80" /> <!-- Just cap the bottom line flat but open -->
    <path d="M 70 80 L 130 80" />
    <!-- Rays -->
    <line x1="100" y1="115" x2="100" y2="125" />
    <line x1="68" y1="105" x2="58" y2="112" />
    <line x1="132" y1="105" x2="142" y2="112" />

    <!-- Dashed Bar Chart (Growing data anticipation) -->
    <!-- Base line -->
    <line x1="115" y1="210" x2="160" y2="210" stroke="#D4CEC8" stroke-width="2" />
    <!-- Bar 1 (Short) -->
    <rect x="120" y="190" width="8" height="20" stroke="#D4CEC8" stroke-dasharray="3 3" />
    <!-- Bar 2 (Med) -->
    <rect x="135" y="170" width="8" height="40" stroke="#D4CEC8" stroke-dasharray="3 3" />
    <!-- Bar 3 (Tall) -->
    <rect x="150" y="145" width="8" height="65" stroke="#D4CEC8" stroke-dasharray="3 3" />

    <!-- The Pot -->
    <!-- Rim -->
    <rect x="150" y="175" width="100" height="14" rx="3" />
    <!-- Base -->
    <path d="M 160 189 L 170 245 C 171 248, 175 250, 180 250 L 220 250 C 225 250, 229 248, 230 245 L 240 189" />

    <!-- The Sprout -->
    <!-- Stem (Wavy and delicate) -->
    <path d="M 200 175 C 195 160, 205 145, 200 130" />
    <!-- Left Leaf -->
    <path d="M 197 155 C 180 145, 165 160, 190 165" />
    <path d="M 190 157 L 180 155" stroke-width="1.5" /> <!-- Leaf vein -->
    <!-- Right Leaf -->
    <path d="M 202 145 C 225 130, 235 155, 205 160" />
    <path d="M 210 148 L 220 145" stroke-width="1.5" /> <!-- Leaf vein -->

    <!-- Water Drop (Falling from above) -->
    <path d="M 242 110 C 242 120, 252 120, 252 110 C 252 100, 247 92, 247 92 C 247 92, 242 100, 242 110 Z" />
    <path d="M 249 108 Q 249 113 245 113" stroke-width="1.5" /> <!-- Highlight curve -->

    <!-- Splashes near drop -->
    <line x1="247" y1="125" x2="247" y2="132" stroke-width="1.5" stroke="#7EB8C9" />
    <circle cx="247" cy="138" r="1.5" stroke="none" fill="#7EB8C9" />

  </g>

  <!-- Delicate Sparkles and Abstract Marks -->
  <!-- Sparkle 1 (Near sprout) -->
  <path d="M 220 120 Q 225 120 225 115 Q 225 120 230 120 Q 225 120 225 125 Q 225 120 220 120 Z" fill="#F5C563" opacity="0.9" />
  
  <!-- Tiny accents -->
  <circle cx="160" cy="230" r="3" fill="#E8725C" opacity="0.7" />
  <circle cx="260" cy="190" r="2.5" fill="#B8A9C9" opacity="0.6" />
  <circle cx="180" cy="100" r="2" fill="#D4CEC8" />
  <circle cx="130" cy="50" r="4" fill="#F5C563" opacity="0.4" />

</svg>
