<svg xmlns="http://www.w3.org/2000/svg" viewBox="0 0 480 360">
  <!-- 
    Claude-inspired Editorial Illustration Style
    - ViewBox 480x360
    - Delicate outline (#2D2A26)
    - Deliberately offset, painterly color blocks
    - Abstract, clear optimistic composition
    - Centered subject looking towards future (top right)
    
    Palette (Strict):
    Blue/Body: #7EB8C9
    Yellow/Sun: #F5C563
    Red/Bud: #E8725C
    Green/Stem/Leaves: #8BA888
    Purple/Dot: #B8A9C9
    Grey/Ground: #D4CEC8
    Skin/Head: #F5DCC8
    Dark Brown/Lines: #2D2A26
  -->

  <!-- Background Abstract Watercolor-like Splashes -->
  <!-- Gentle ground shadow (Flatter, more expansive) -->
  <ellipse cx="240" cy="295" rx="160" ry="12" fill="#D4CEC8" opacity="0.15" />
  <ellipse cx="240" cy="295" rx="80" ry="8" fill="#D4CEC8" opacity="0.25" />

  <!-- The Future Sun (Top Right, very large, translucent, pushed further to edge) -->
  <circle cx="400" cy="60" r="110" fill="#F5C563" opacity="0.12" />
  <circle cx="400" cy="60" r="60" fill="#F5C563" opacity="0.2" />

  <!-- Offset Color Fills -->
  <!-- Character Head Fill (Perfect circle, slightly offset) -->
  <circle cx="236" cy="133" r="26" fill="#F5DCC8" />
  
  <!-- Character Body Fill (Blue) - Elegant, flowing -->
  <path d="M 220 160 C 245 160, 260 180, 265 210 C 270 240, 260 295, 235 295 C 210 295, 195 240, 205 210 C 215 180, 200 165, 220 160 Z" fill="#7EB8C9" opacity="0.8" />
  
  <!-- Flower Bud Fill (Red) - Very clean, slightly offset -->
  <circle cx="120" cy="245" r="9" fill="#E8725C" opacity="0.9" />

  <!-- Line Art (The delicate hand-drawn structure) -->
  <g stroke="#2D2A26" stroke-width="2" stroke-linecap="round" stroke-linejoin="round" fill="none">
    
    <!-- Sweeping Ground Line (Abstract, disjointed) -->
    <path d="M 60 295 C 160 305, 320 300, 420 285" stroke="#D4CEC8" stroke-width="2" />
    <path d="M 100 305 C 180 310, 260 308, 340 300" stroke="#D4CEC8" stroke-width="1.5" />

    <!-- Character Outline and Features (Looking up towards top right) -->
    <!-- Head Outline -->
    <circle cx="235" cy="135" r="25" />
    
    <!-- Face (Looking right/up) -->
    <circle cx="238" cy="130" r="1.5" fill="#2D2A26" stroke="none" /> <!-- Left eye -->
    <circle cx="254" cy="126" r="1.5" fill="#2D2A26" stroke="none" /> <!-- Right eye -->
    
    <!-- Smile -->
    <path d="M 242 138 C 248 144, 254 138, 256 136" stroke-width="1.5" /> 
    
    <!-- Blush -->
    <circle cx="230" cy="136" r="3.5" fill="#E8725C" opacity="0.2" stroke="none" />
    <circle cx="258" cy="132" r="3.5" fill="#E8725C" opacity="0.2" stroke="none" />

    <!-- Hair Tuft -->
    <path d="M 228 110 C 235 100, 222 98, 222 98" stroke-width="1.5" />
    <path d="M 230 110 C 238 102, 233 98, 233 98" stroke-width="1.5" />

    <!-- Standing Body -->
    <path d="M 235 160 C 220 170, 215 200, 220 245 C 225 275, 230 295, 240 295 M 250 155 C 265 170, 270 200, 265 245 C 260 275, 255 295, 245 295" />
    
    <!-- Abstract clothing fold/belt line -->
    <path d="M 218 245 C 235 250, 250 250, 267 245" stroke-width="1.5" />

    <!-- Arms -->
    <path d="M 225 170 C 210 190, 200 220, 213 235 C 215 238, 220 238, 220 235" /> <!-- Left Arm -->
    <path d="M 260 170 C 275 190, 285 220, 272 235 C 270 238, 265 238, 265 235" /> <!-- Right Arm -->

    <!-- Flower Bud (Left side, waiting to bloom) -->
    <!-- Stem -->
    <path d="M 120 255 C 115 270, 125 285, 120 298" stroke="#8BA888" stroke-width="2.5" />
    <!-- Single elegant leaf -->
    <path d="M 118 275 C 95 265, 105 250, 118 275" stroke="#8BA888" stroke-width="1.5" fill="#8BA888" fill-opacity="0.3" />
    
    <!-- Red Bud Outline -->
    <circle cx="120" cy="246" r="8" />
    <path d="M 112 246 C 120 255, 128 246, 128 246" stroke-width="1" />

    <!-- Sun Rays (very faint, dashed lines) -->
    <g stroke="#F5C563" stroke-width="2" stroke-dasharray="4 8" stroke-linecap="round" opacity="0.6">
      <path d="M 350 110 C 310 120, 290 125, 275 115" />
      <path d="M 360 160 C 330 170, 305 165, 285 155" />
      <path d="M 380 210 C 350 220, 320 210, 295 195" />
    </g>

  </g>

  <!-- Delicate Sparkles and Abstract Marks -->
  <!-- Sparkles -->
  <path d="M 320 80 Q 325 80, 325 75 Q 325 80, 330 80 Q 325 80, 325 85 Q 325 80, 320 80 Z" fill="#F5C563" opacity="0.8" />
  <path d="M 290 140 Q 293 140, 293 137 Q 293 140, 296 140 Q 293 140, 293 143 Q 293 140, 290 140 Z" fill="#E8725C" opacity="0.6" />
  
  <path d="M 180 180 Q 183 180, 183 177 Q 183 180, 186 180 Q 183 180, 183 183 Q 183 180, 180 180 Z" fill="#7EB8C9" opacity="0.5" />

  <!-- Dots -->
  <circle cx="430" cy="260" r="4" fill="#B8A9C9" opacity="0.25" />
  <circle cx="160" cy="110" r="2.5" fill="#7EB8C9" opacity="0.3" />
  <circle cx="140" cy="210" r="2" fill="#F5C563" opacity="0.4" />
  <circle cx="290" cy="260" r="1.5" fill="#D4CEC8" opacity="0.8" />

</svg>
