<svg viewBox="0 0 48 48" xmlns="http://www.w3.org/2000/svg"><path d="M 26 4 C 38 5 45 15 42 27 C 39 39 28 45 17 41 C 6 37 3 25 7 15 C 11 5 15 4 26 4 Z" fill="#E8725C"/><path d="M 21 13 C 21 12 27 12 27 13 L 26 21 L 34 22 C 35 22 35 28 34 28 L 26 27 L 25 35 C 25 36 19 36 19 35 L 20 27 L 12 26 C 11 26 11 20 12 20 L 20 21 Z" fill="#ffffff"/><circle cx="25" cy="6" r="3" fill="#F5C563"/><circle cx="23" cy="42" r="2.5" fill="#F5C563"/><circle cx="5" cy="22" r="2.5" fill="#F5C563"/><circle cx="43" cy="27" r="2" fill="#F5C563"/></svg>
