<svg viewBox="0 0 48 48" xmlns="http://www.w3.org/2000/svg"><path d="M 24 14 C 18 14 14 18 14 24 C 14 30 10 34 10 36 C 18 38 30 38 38 36 C 38 34 34 30 34 24 C 34 18 30 14 24 14 Z" fill="#F5C563"/><path d="M 20 38 C 22 42 26 42 28 38 Z" fill="#F5C563"/><path d="M 20 12 C 16 10 16 16 20 16 C 24 16 26 14 24 12 Z M 28 12 C 32 10 32 16 28 16 C 24 16 22 14 24 12 Z" fill="#E8725C"/><circle cx="24" cy="14" r="2.5" fill="#E8725C"/><path d="M 8 20 C 6 24 6 28 8 32 M 40 20 C 42 24 42 28 40 32" fill="none" stroke="#F5C563" stroke-width="2.5" stroke-linecap="round" opacity="0.6"/></svg>
