<svg viewBox="0 0 48 48" xmlns="http://www.w3.org/2000/svg"><path d="M 6 18 C 14 16 23 18 24 20 C 25 18 34 16 42 18 L 40 40 C 33 38 25 39 24 42 C 23 39 15 38 8 40 Z" fill="#7EB8C9"/><path d="M 8 19 C 15 17 22 19 24 21 L 24 40 C 22 38 15 37 8 39 Z" fill="#ffffff" opacity="0.9"/><path d="M 40 19 C 33 17 26 19 24 21 L 24 40 C 26 38 33 37 40 39 Z" fill="#ffffff" opacity="0.9"/><path d="M 12 25 L 20 26 M 12 30 L 19 31 M 12 35 L 21 35" fill="none" stroke="#D4CEC8" stroke-width="2.5" stroke-linecap="round"/><path d="M 36 25 L 28 26 M 36 30 L 29 31 M 36 35 L 27 35" fill="none" stroke="#D4CEC8" stroke-width="2.5" stroke-linecap="round"/><path d="M 24 6 C 22 6 20 8 20 11 C 20 13 22 14 23 15 L 23 16 C 23 16.5 25 16.5 25 16 L 25 15 C 26 14 28 13 28 11 C 28 8 26 6 24 6 Z" fill="#F5C563"/></svg>
