<svg viewBox="0 0 48 48" xmlns="http://www.w3.org/2000/svg"><path d="M 13 16 C 20 14 28 14 35 16 L 31 8 C 25 7 20 7 17 8 Z" fill="#F5C563"/><path d="M 10 25 C 20 22 30 22 38 24 L 35 16 C 28 14 20 14 13 16 Z" fill="#B8A9C9"/><g transform="translate(25, 18) rotate(15)"><path d="M 0 -8 C 2 -3 4 -1 9 0 C 4 1 2 3 0 8 C -2 3 -4 1 -9 0 C -4 -1 -2 -3 0 -8 Z" fill="#E8725C"/></g><path d="M 9 25 C 20 23 30 23 39 26 C 36 36 34 42 30 44 C 22 45 16 44 11 41 C 9 36 8 30 9 25 Z" fill="#D4CEC8"/><path d="M 9 25 C 19 23 29 23 39 26 C 38 28 37 30 35 32 C 26 29 16 29 10 31 C 9 29 9 27 9 25 Z" fill="#F5DCC8"/></svg>
