<svg viewBox="0 0 48 48" xmlns="http://www.w3.org/2000/svg"><path d="M 23 15 C 32 13 42 16 41 27 C 40 33 36 36 30 38 C 26 40 24 42 24 42 L 23 15 Z" fill="#B8A9C9"/><path d="M 25 15 C 16 13 6 16 7 27 C 8 33 12 36 18 38 C 22 40 24 42 24 42 L 25 15 Z" fill="#E8725C"/><path d="M 12 25 C 14 22 18 22 20 25 M 10 32 C 14 30 18 32 18 36 M 15 18 C 18 16 22 18 22 20" fill="none" stroke="#F5DCC8" stroke-width="2.5" stroke-linecap="round"/><path d="M 36 25 C 34 22 30 22 28 25 M 38 32 C 34 30 30 32 30 36 M 33 18 C 30 16 26 18 26 20" fill="none" stroke="#ffffff" opacity="0.6" stroke-width="2.5" stroke-linecap="round"/><path d="M 24 3 C 21 3 19 6 19 9 C 19 12 21 14 22 14 L 26 14 C 27 14 29 12 29 9 C 29 6 27 3 24 3 Z" fill="#F5C563"/></svg>
