<svg viewBox="0 0 48 48" xmlns="http://www.w3.org/2000/svg"><path d="M 9 14 C 20 12 30 12 39 14 C 40 22 40 32 39 40 C 30 42 20 42 9 40 C 8 32 8 22 9 14 Z" fill="#ffffff" opacity="0.9"/><path d="M 9 14 C 20 12 30 12 39 14 L 39 20 C 30 18 20 18 9 20 Z" fill="#E8725C"/><path d="M 16 8 C 16 12 16 14 16 16 M 32 8 C 32 12 32 14 32 16" fill="none" stroke="#D4CEC8" stroke-width="4" stroke-linecap="round"/><path d="M 32 20 L 36 24 L 44 16" fill="none" stroke="#8BA888" stroke-width="3" stroke-linecap="round" stroke-linejoin="round"/><path d="M 18 26 C 22 26 22 32 18 32 C 14 32 14 26 18 26 Z" fill="none" stroke="#E8725C" stroke-width="2.5" stroke-linecap="round"/><circle cx="18" cy="29" r="1.5" fill="#E8725C"/><circle cx="26" cy="29" r="1.5" fill="#D4CEC8"/><circle cx="34" cy="29" r="1.5" fill="#D4CEC8"/><circle cx="18" cy="35" r="1.5" fill="#D4CEC8"/><circle cx="26" cy="35" r="1.5" fill="#D4CEC8"/></svg>
