<svg viewBox="0 0 48 48" xmlns="http://www.w3.org/2000/svg"><path d="M 9 14 C 20 12 30 12 39 14 C 40 22 40 32 39 40 C 30 42 20 42 9 40 C 8 32 8 22 9 14 Z" fill="#ffffff" opacity="0.9"/><path d="M 9 14 C 20 12 30 12 39 14 L 39 20 C 30 18 20 18 9 20 Z" fill="#E8725C"/><path d="M 16 8 C 16 12 16 14 16 16 M 32 8 C 32 12 32 14 32 16" fill="none" stroke="#D4CEC8" stroke-width="4" stroke-linecap="round"/><path d="M 17 26 C 20 25 24 25 28 25 C 28 27 26 31 23 37" fill="none" stroke="#E8725C" stroke-width="4" stroke-linecap="round" stroke-linejoin="round"/></svg>
