<svg viewBox="0 0 48 48" xmlns="http://www.w3.org/2000/svg"><path d="M 6 42 L 42 42" fill="none" stroke="#D4CEC8" stroke-width="4" stroke-linecap="round"/><path d="M 10 30 C 12 30 18 30 18 30 C 18 35 18 38 18 40 L 10 40 Z" fill="#7EB8C9"/><path d="M 20 22 C 22 22 28 22 28 22 C 28 30 28 36 28 40 L 20 40 Z" fill="#8BA888"/><path d="M 30 16 C 34 16 38 16 38 16 C 38 28 38 34 38 40 L 30 40 Z" fill="#E8725C"/><path d="M 10 32 C 10 28 18 28 18 32 L 18 30 L 10 30 Z" fill="#7EB8C9"/><path d="M 20 24 C 20 20 28 20 28 24 L 28 22 L 20 22 Z" fill="#8BA888"/><path d="M 30 18 C 30 14 38 14 38 18 L 38 16 L 30 16 Z" fill="#E8725C"/><path d="M 34 6 C 35 8 36 9 38 10 C 36 11 35 12 34 14 C 33 12 32 11 30 10 C 32 9 33 8 34 6 Z" fill="#F5C563"/></svg>
