<svg viewBox="0 0 48 48" xmlns="http://www.w3.org/2000/svg"><path d="M 12 18 C 6 18 6 26 12 28 M 36 18 C 42 18 42 26 36 28" fill="none" stroke="#F5C563" stroke-width="4" stroke-linecap="round"/><path d="M 16 38 C 20 36 28 36 32 38 L 34 44 H 14 Z" fill="#D4CEC8"/><path d="M 23 32 L 25 32 L 25 38 L 23 38 Z" fill="#D4CEC8"/><path d="M 12 14 C 12 8 36 8 36 14 C 36 26 30 34 24 34 C 18 34 12 26 12 14 Z" fill="#F5C563"/><path d="M 24 16 L 25.5 20 H 29 L 26 22 L 27 26 L 24 23.5 L 21 26 L 22 22 L 19 20 H 22.5 Z" fill="#E8725C"/><circle cx="18" cy="8" r="1.5" fill="#F5C563"/><circle cx="30" cy="6" r="2" fill="#F5C563"/></svg>
