<svg viewBox="0 0 48 48" xmlns="http://www.w3.org/2000/svg"><g transform="translate(24, 24) rotate(-30) translate(-24, -24)"><path d="M 12 22 L 36 22 L 36 26 L 12 26 Z" fill="#D4CEC8"/><path d="M 8 12 C 12 11 16 11 16 16 L 16 32 C 16 37 12 37 8 36 C 4 35 4 13 8 12 Z" fill="#E8725C"/><path d="M 6 16 L 10 16 C 11 20 11 28 10 32 L 6 32 Z" fill="#D4CEC8" opacity="0.5"/><path d="M 40 12 C 36 11 32 11 32 16 L 32 32 C 32 37 36 37 40 36 C 44 35 44 13 40 12 Z" fill="#E8725C"/><path d="M 42 16 L 38 16 C 37 20 37 28 38 32 L 42 32 Z" fill="#D4CEC8" opacity="0.5"/></g><path d="M 10 9 C 10 12 12 14 12 14 C 12 14 14 12 14 9 C 14 6 12 4 12 4 C 12 4 10 6 10 9 Z" fill="#7EB8C9"/><path d="M 38 41 C 38 44 36 46 36 46 C 36 46 34 44 34 41 C 34 38 36 36 36 36 C 36 36 38 38 38 41 Z" fill="#7EB8C9"/></svg>
