<svg viewBox="0 0 48 48" xmlns="http://www.w3.org/2000/svg"><path d="M 24 6 C 26 12 30 18 36 24 C 42 30 38 42 24 42 C 10 42 6 30 12 24 C 18 18 20 14 24 6 Z" fill="#E8725C"/><path d="M 24 20 C 26 24 28 26 30 30 C 32 34 28 38 24 38 C 20 38 16 34 18 30 C 20 26 22 24 24 20 Z" fill="#F5C563"/><circle cx="21" cy="28" r="1.5" fill="#E8725C"/><circle cx="27" cy="28" r="1.5" fill="#E8725C"/><path d="M 20 25 C 21 24 22 24 23 25 M 25 25 C 26 24 27 24 28 25" fill="none" stroke="#E8725C" stroke-width="1.5" stroke-linecap="round"/></svg>
