<svg viewBox="0 0 48 48" xmlns="http://www.w3.org/2000/svg"><path d="M 4 42 C 14 36 24 32 34 36 C 40 38 44 40 44 42 L 4 42 Z" fill="#8BA888"/><path d="M 16 10 C 16 18 15 28 17 38" fill="none" stroke="#D4CEC8" stroke-width="3" stroke-linecap="round"/><path d="M 16 12 C 24 8 32 16 38 10 C 34 18 28 20 28 24 C 24 28 20 24 16 26 Z" fill="#E8725C"/><circle cx="30" cy="38" r="2.5" fill="#F5C563"/><path d="M 27 38 L 29 38 M 31 38 L 33 38 M 30 35 L 30 37 M 30 39 L 30 41" fill="none" stroke="#F5C563" stroke-width="1.5" stroke-linecap="round"/></svg>
