<svg viewBox="0 0 48 48" xmlns="http://www.w3.org/2000/svg"><path d="M 10 20 C 12 18 36 18 38 20 L 36 40 C 30 42 18 42 12 40 Z" fill="#7EB8C9"/><path d="M 8 18 C 18 16 30 16 40 18 L 40 22 C 30 24 18 24 8 22 Z" fill="#7EB8C9"/><path d="M 22 23 L 26 23 L 26 40 C 24 41 24 41 22 40 Z" fill="#E8725C"/><path d="M 11 28 C 18 29 28 29 37 28 C 37 30 37 30 37 32 C 28 33 18 33 11 32 Z" fill="#E8725C"/><path d="M 24 18 C 16 14 14 6 22 10 C 26 12 26 12 24 18 Z" fill="#E8725C"/><path d="M 24 18 C 32 14 34 6 26 10 C 22 12 22 12 24 18 Z" fill="#E8725C"/><path d="M 8 8 L 10 6 L 12 8 L 10 10 Z" fill="#F5C563"/><path d="M 38 12 L 40 9 L 42 12 L 40 15 Z" fill="#F5C563"/></svg>
