<svg viewBox="0 0 48 48" xmlns="http://www.w3.org/2000/svg"><path d="M 12 12 C 20 10 28 10 36 12 L 34 20 L 14 20 Z" fill="#ffffff" opacity="0.7"/><path d="M 16 16 L 32 16" fill="none" stroke="#D4CEC8" stroke-width="2" stroke-linecap="round"/><path d="M 6 22 C 18 20 30 20 42 22 L 40 38 C 28 40 20 40 8 38 Z" fill="#ffffff" opacity="0.95"/><path d="M 6 22 C 18 26 24 30 24 30 C 24 30 30 26 42 22" fill="none" stroke="#E8725C" stroke-width="3" stroke-linecap="round" stroke-linejoin="round"/><path d="M 6 38 C 16 32 24 30 24 30 C 24 30 32 32 42 38" fill="none" stroke="#D4CEC8" stroke-width="2" stroke-linecap="round" stroke-linejoin="round"/><path d="M 24 33 C 26 31 28 31 28 33 C 28 36 24 38 24 38 C 24 38 20 36 20 33 C 20 31 22 31 24 33 Z" fill="#E8725C"/></svg>
