<svg viewBox="0 0 48 48" xmlns="http://www.w3.org/2000/svg"><path d="M 22 6 C 35 4 44 14 42 26 C 40 38 28 46 16 42 C 10 40 7 32 10 26 C 13 20 18 16 26 18 C 30 19 32 16 30 12 C 28 8 26 7 22 6 Z" fill="#7EB8C9"/><path d="M 28 26 C 30 24 34 24 34 28 C 34 32 30 32 28 30" fill="none" stroke="#ffffff" stroke-width="2.5" stroke-linecap="round" opacity="0.5"/><circle cx="36" cy="34" r="2" fill="#ffffff" opacity="0.4"/><circle cx="22" cy="36" r="3" fill="#ffffff" opacity="0.3"/><circle cx="20" cy="22" r="1.5" fill="#ffffff" opacity="0.4"/><path d="M 14 10 L 15.5 13 H 18.5 L 16.5 15 L 17 18 L 14 16 L 11 18 L 11.5 15 L 9.5 13 H 12.5 Z" fill="#F5C563"/></svg>
