<svg viewBox="0 0 48 48" xmlns="http://www.w3.org/2000/svg"><path d="M 24 6 C 36 6 40 20 38 28 C 34 20 25 18 18 23 C 11 28 10 37 14 42 C 4 38 2 22 8 13 C 12 7 18 6 24 6 Z" fill="#F5C563"/><path d="M 22 14 C 24 16 26 16 27 14 M 30 15 C 32 17 34 17 35 15" fill="none" stroke="#D4CEC8" stroke-width="2" stroke-linecap="round"/><path d="M 16 42 C 16 38 20 36 24 36 C 26 36 28 37 30 39 C 32 35 38 34 42 36 C 45 38 46 43 43 45 C 41 46 16 46 16 42 Z" fill="#7EB8C9" opacity="0.5"/><path d="M 38 6 C 39 8 40 9 42 10 C 40 11 39 12 38 14 C 37 12 36 11 34 10 C 36 9 37 8 38 6 Z" fill="#F5C563"/><path d="M 12 30 C 13 31 14 32 15 32 C 14 33 13 34 12 35 C 11 34 10 33 9 32 C 10 32 11 31 12 30 Z" fill="#F5C563"/></svg>
