<svg viewBox="0 0 48 48" xmlns="http://www.w3.org/2000/svg"><path d="M 26 40 L 32 46 L 36 40 Z" fill="#8BA888"/><path d="M 14 8 C 24 6 36 8 38 10 C 40 16 40 36 38 40 C 32 42 20 40 14 38 Z" fill="#E8725C"/><path d="M 26 18 L 27.5 21 H 31 L 28 23 L 29 27 L 26 24.5 L 23 27 L 24 23 L 21 21 H 24.5 Z" fill="#F5C563"/><circle cx="14" cy="16" r="3" fill="#D4CEC8"/><circle cx="14" cy="24" r="3" fill="#D4CEC8"/><circle cx="14" cy="32" r="3" fill="#D4CEC8"/><path d="M 10 16 C 10 13 14 13 16 16" fill="none" stroke="#ffffff" stroke-width="2" stroke-linecap="round"/><path d="M 10 24 C 10 21 14 21 16 24" fill="none" stroke="#ffffff" stroke-width="2" stroke-linecap="round"/><path d="M 10 32 C 10 29 14 29 16 32" fill="none" stroke="#ffffff" stroke-width="2" stroke-linecap="round"/></svg>
