<svg viewBox="0 0 48 48" xmlns="http://www.w3.org/2000/svg"><path d="M 10 42 C 18 45 28 41 38 43 C 40 43 40 40 38 39 C 28 37 18 41 10 39 C 8 38 8 41 10 42 Z" fill="#7EB8C9"/><g transform="translate(25, 21) rotate(-40) translate(-24, -22)"><path d="M 15 4 C 20 2 28 2 33 4 C 35 6 35 12 33 14 L 15 14 C 13 12 13 6 15 4 Z" fill="#B8A9C9"/><path d="M 14 15 L 34 15 L 33 20 L 15 20 Z" fill="#D4CEC8"/><path d="M 15 21 L 33 21 C 34 28 34 32 32 35 L 16 35 C 14 32 14 28 15 21 Z" fill="#F5C563"/><path d="M 16 36 L 32 36 C 30 40 28 43 25 45 C 23 45 20 40 16 36 Z" fill="#F5DCC8"/><path d="M 21 41 L 27 41 C 26 43 25 45 24 45 C 23 45 22 43 21 41 Z" fill="#E8725C"/></g></svg>
