<svg viewBox="0 0 48 48" xmlns="http://www.w3.org/2000/svg"><path d="M 8 16 C 16 14 26 13 32 15 C 35 22 36 32 33 39 C 25 42 14 41 8 38 C 5 30 4 22 8 16 Z" fill="#7EB8C9"/><path d="M 12 26 C 16 25 20 25 24 26 C 25 27 25 29 24 29 C 20 28 16 28 12 29 C 11 28 11 27 12 26 Z" fill="#ffffff"/><path d="M 13 32 C 19 31 25 31 29 32 C 30 33 30 35 29 35 C 25 34 19 34 13 35 C 12 34 12 33 13 32 Z" fill="#ffffff"/><g transform="translate(35, 15) rotate(40) translate(-35, -15)"><path d="M 30 2 C 35 1 39 1 41 4 C 41 7 40 9 39 10 L 30 10 C 29 8 28 4 30 2 Z" fill="#B8A9C9"/><path d="M 30 11 L 39 11 C 39 16 38 22 36 24 L 31 24 C 29 22 29 16 30 11 Z" fill="#E8725C"/><path d="M 31 25 L 36 25 C 35 28 34 30 33 31 C 32 30 31 28 31 25 Z" fill="#F5DCC8"/><path d="M 33 32 L 34 32 C 34 33 33.5 34 33.5 34 C 33 34 33 33 33 32 Z" fill="#D4CEC8"/></g></svg>
