<svg viewBox="0 0 48 48" xmlns="http://www.w3.org/2000/svg"><circle cx="28" cy="12" r="5" fill="#F5DCC8"/><path d="M 26 18 C 24 22 24 30 20 34 C 18 36 14 36 14 34 L 16 32 C 20 31 22 26 23 20 Z" fill="#E8725C"/><path d="M 22 28 C 26 31 30 35 34 38 L 30 40 C 26 37 22 32 20 29 Z" fill="#E8725C"/><path d="M 25 19 C 20 20 16 22 14 20 L 16 17 C 19 18 22 17 24 16 Z" fill="#E8725C"/><path d="M 25 19 C 28 22 34 22 38 20 L 37 17 C 33 19 28 17 26 16 Z" fill="#E8725C"/><path d="M 6 16 L 14 16 M 4 24 L 12 24" fill="none" stroke="#F5C563" stroke-width="3" stroke-linecap="round" opacity="0.7"/><path d="M 10 44 L 40 44" fill="none" stroke="#D4CEC8" stroke-width="3" stroke-linecap="round"/></svg>
