<svg viewBox="0 0 48 48" xmlns="http://www.w3.org/2000/svg"><g transform="translate(24, 24)"><path d="M -6 -14 C -6 -18 -4 -22 0 -22 C 4 -22 6 -18 6 -14 Z" fill="#908880"/><path d="M 5 -13 C 8 -16 13 -18 16 -15 C 19 -12 17 -7 13 -5 Z" fill="#908880"/><path d="M 13 5 C 17 7 19 12 16 15 C 13 18 8 16 5 13 Z" fill="#908880"/><path d="M 6 14 C 6 18 4 22 0 22 C -4 22 -6 18 -6 14 Z" fill="#908880"/><path d="M -5 13 C -8 16 -13 18 -16 15 C -19 12 -17 7 -13 5 Z" fill="#908880"/><path d="M -13 -5 C -17 -7 -19 -12 -16 -15 C -13 -18 -8 -16 -5 -13 Z" fill="#908880"/></g><circle cx="24" cy="24" r="16" fill="#908880"/><circle cx="24" cy="24" r="8" fill="white"/><g transform="translate(24, 24) rotate(45) translate(-24, -24)"><path d="M 21 28 C 21 37 27 37 27 28 L 27 22 L 21 22 Z" fill="#E8725C"/><path d="M 17 18 C 17 9 31 9 31 18 C 31 23 28 25 24 25 C 20 25 17 23 17 18 Z" fill="#E8725C"/><circle cx="24" cy="14" r="4" fill="white"/><path d="M 21 14 L 27 14 L 27 6 L 21 6 Z" fill="white"/></g></svg>
