<svg viewBox="0 0 48 48" xmlns="http://www.w3.org/2000/svg"><path d="M 24 6 C 26 14 26 16 32 20 C 40 22 42 24 36 30 C 32 34 32 36 34 44 C 28 40 26 38 24 38 C 22 38 20 40 14 44 C 16 36 16 34 12 30 C 6 24 8 22 16 20 C 22 16 22 14 24 6 Z" fill="#F5C563"/><circle cx="21" cy="27" r="1.5" fill="#ffffff" opacity="0.8"/><circle cx="27" cy="27" r="1.5" fill="#ffffff" opacity="0.8"/><path d="M 22 30 C 23 32 25 32 26 30" fill="none" stroke="#ffffff" stroke-width="2" stroke-linecap="round" opacity="0.8"/><circle cx="10" cy="14" r="2" fill="#F5C563"/><circle cx="40" cy="18" r="1.5" fill="#F5C563"/><circle cx="36" cy="40" r="2" fill="#F5C563"/></svg>
