<svg viewBox="0 0 48 48" xmlns="http://www.w3.org/2000/svg"><path d="M 24 4 L 24 10 M 24 38 L 24 44 M 4 24 L 10 24 M 38 24 L 44 24 M 10 10 L 14 14 M 34 34 L 38 38 M 38 10 L 34 14 M 10 38 L 14 34" fill="none" stroke="#F5C563" stroke-width="4" stroke-linecap="round"/><circle cx="24" cy="24" r="12" fill="#F5C563"/><path d="M 24 24 C 28 22 34 26 24 36 C 14 26 20 22 24 24 Z" fill="#F5C563" transform="scale(0.8) translate(6, 6)"/><path d="M 20 25 C 22 27 26 27 28 25" fill="none" stroke="#E8725C" stroke-width="2.5" stroke-linecap="round"/></svg>
