<svg viewBox="0 0 48 48" xmlns="http://www.w3.org/2000/svg"><g transform="translate(24, 14) rotate(-12) translate(-24, -14)"><path d="M 20 7 C 23 6 25 6 28 7 C 29 8 28 11 28 11 L 20 11 C 19 11 19 8 20 7 Z" fill="#E8725C"/><path d="M 10 12 C 18 10 30 10 38 12 C 40 13 40 16 38 17 C 30 19 18 19 10 17 C 8 16 8 13 10 12 Z" fill="#D4CEC8"/></g><path d="M 13 19 C 20 18 28 18 35 19 C 36 28 35 38 33 42 C 31 45 17 45 15 42 C 13 38 12 28 13 19 Z" fill="#D4CEC8"/><path d="M 19 25 L 21 27 L 23 25 L 24 26 L 22 28 L 24 30 L 23 31 L 21 29 L 19 31 L 18 30 L 20 28 L 18 26 Z" fill="#E8725C"/><path d="M 27 25 L 29 27 L 31 25 L 32 26 L 30 28 L 32 30 L 31 31 L 29 29 L 27 31 L 26 30 L 28 28 L 26 26 Z" fill="#E8725C"/><path d="M 22 34 C 23 37 27 37 28 34 C 27 34 23 34 22 34 Z" fill="#E8725C"/></svg>
