<svg viewBox="0 0 48 48" xmlns="http://www.w3.org/2000/svg"><circle cx="16" cy="16" r="6" fill="#F5DCC8"/><path d="M 16 24 C 10 24 6 30 6 36 C 6 38 10 40 16 40 C 22 40 26 38 26 36 C 26 30 22 24 16 24 Z" fill="#E8725C"/><circle cx="32" cy="18" r="5" fill="#F5DCC8"/><path d="M 32 26 C 28 26 24 30 24 36 C 24 38 28 40 32 40 C 36 40 40 38 40 36 C 40 30 36 26 32 26 Z" fill="#7EB8C9"/><path d="M 24 16 C 26 14 29 14 30 16 C 31 18 29 20 24 24 C 19 20 17 18 18 16 C 19 14 22 14 24 16 Z" fill="#F5C563"/></svg>
